<svg width="19" height="17" viewBox="0 0 19 17" fill="none" xmlns="http://www.w3.org/2000/svg">
<path fill-rule="evenodd" clip-rule="evenodd" d="M9.53695 0.336704C9.75261 0.121113 10.0451 0 10.35 0C10.6549 0 10.9474 0.121113 11.163 0.336704L18.0631 7.23671C18.2786 7.45236 18.3998 7.74482 18.3998 8.04976C18.3998 8.35469 18.2786 8.64715 18.0631 8.8628L11.163 15.7628C10.9462 15.9723 10.6557 16.0882 10.3541 16.0856C10.0526 16.083 9.76418 15.962 9.55096 15.7488C9.33774 15.5356 9.2168 15.2471 9.21418 14.9456C9.21156 14.6441 9.32747 14.3536 9.53695 14.1367L14.4739 9.19975H1.15C0.845001 9.19975 0.552494 9.07859 0.336827 8.86293C0.12116 8.64726 0 8.35475 0 8.04976C0 7.74476 0.12116 7.45225 0.336827 7.23658C0.552494 7.02092 0.845001 6.89976 1.15 6.89976H14.4739L9.53695 1.9628C9.32136 1.74715 9.20025 1.45469 9.20025 1.14975C9.20025 0.844816 9.32136 0.552361 9.53695 0.336704Z" fill="#08032E"/>
</svg>
