<svg width="40" height="68" viewBox="0 0 40 68" fill="none" xmlns="http://www.w3.org/2000/svg">
<path fill-rule="evenodd" clip-rule="evenodd" d="M25.1607 18.3914C19.232 17.0959 10.6283 15.2159 7.53352 21.8466C5.817 25.5243 7.06167 27.7936 8.3966 30.2276C9.3656 31.9944 10.3822 33.8479 10.3483 36.3896C10.3154 38.8496 8.59462 40.3528 6.56549 42.1254C3.60983 44.7073 0 47.8606 0 55.3749C0 72.0149 22.7661 67.3789 22.7661 67.3789L25.4153 53.9675C25.4153 53.9675 35.1984 58.5477 35.6951 53.1667C35.9929 49.9406 36.2405 49.2759 36.4925 48.5994C36.6609 48.1476 36.8312 47.6904 37.0197 46.461C37.0746 46.1028 37.0463 45.6707 37.0163 45.2136C36.958 44.3267 36.8936 43.3455 37.4193 42.6258C37.768 42.1485 38.1212 42.2005 38.5088 42.2577C38.856 42.3089 39.2307 42.3642 39.6545 42.0463C40.5211 41.3964 39.62 40.1194 38.4686 38.4876C37.4202 37.0019 36.1643 35.2222 35.8463 33.3538C35.7476 32.7738 35.6838 32.0865 35.6136 31.3297C35.2127 27.0092 34.6015 20.4222 26.0776 18.5906C25.7802 18.5267 25.4742 18.4599 25.1607 18.3914ZM22.6006 40.565C20.8886 40.565 18.7891 40.1298 17.279 38.4876C16.0355 37.1355 15.4994 35.9436 15.5638 34.1077C15.6276 32.2866 16.1204 31.174 17.5506 29.8857C18.6069 28.9341 20.088 28.4136 21.6215 28.4136C24.3391 28.4136 25.4284 29.2454 26.4915 30.8791C27.5546 32.5127 27.8161 33.5725 27.8161 34.77C28.3128 37.9987 25.8925 40.565 22.6006 40.565Z" fill="#F7C59F"/>
<path fill-rule="evenodd" clip-rule="evenodd" d="M21.4718 28.5665C21.7795 28.4166 22.1464 28.5414 22.2914 28.8452C22.4362 29.1489 22.4443 29.3519 22.1368 29.5019L22.1365 29.5021L22.1358 29.5024C22.1347 29.503 22.1328 29.5039 22.13 29.5053C22.1245 29.508 22.1157 29.5124 22.1039 29.5184C22.0801 29.5303 22.0442 29.5487 21.9976 29.5731C21.9043 29.622 21.6288 29.8598 21.4638 29.9543C21.1329 30.1438 20.6887 30.4167 20.2321 30.7513C19.7735 31.0874 19.316 31.4758 18.9494 31.8937C18.5793 32.3156 18.3316 32.7337 18.2395 33.1293C17.784 35.0858 18.3572 36.7963 19.9917 37.6897C20.911 38.1923 22.0435 38.335 23.0262 38.106C24.0007 37.879 24.7746 37.3049 25.1111 36.41C25.4117 35.6106 25.4166 34.7014 25.1471 33.9609C24.8809 33.2293 24.3685 32.7047 23.6447 32.5423C22.9997 32.3976 22.3155 32.4694 21.7777 32.7223C21.2501 32.9704 20.8865 33.3767 20.776 33.923C20.5823 34.881 20.8409 35.57 21.4404 35.814C21.7848 35.9542 22.334 35.9501 22.7676 35.7886C22.9786 35.71 23.1056 35.6145 23.1656 35.54C23.2095 35.4856 23.2223 35.4429 23.206 35.369C23.1158 34.9603 22.8017 34.7197 22.3799 34.7362C22.0399 34.7496 21.7584 34.486 21.7511 34.1474C21.7439 33.8089 22.0138 33.5237 22.3538 33.5103C23.364 33.4706 24.1931 34.1058 24.4092 35.0848C24.5114 35.5476 24.3847 35.9696 24.1208 36.2972C23.873 36.6048 23.5239 36.8089 23.1804 36.9368C22.505 37.1884 21.6311 37.2254 20.9568 36.951C19.5488 36.3779 19.33 34.8823 19.5687 33.7018C19.7713 32.7001 20.4491 31.9999 21.2685 31.6146C22.0776 31.2341 23.0459 31.1455 23.936 31.3452C25.1445 31.6163 25.9314 32.4948 26.3061 33.5244C26.6775 34.5452 26.6647 35.7553 26.2637 36.8219C25.7477 38.1939 24.5727 39.0006 23.286 39.3004C22.0075 39.5983 20.5664 39.4141 19.3841 38.7678C17.1668 37.5558 16.4912 35.2296 17.0399 32.8729C17.1959 32.2027 17.5841 31.6023 18.0283 31.096C18.4759 30.5857 19.011 30.1363 19.514 29.7677C20.0189 29.3976 20.5053 29.0991 20.8646 28.8934C21.0447 28.7902 21.1942 28.7097 21.2996 28.6544C21.3523 28.6267 21.3941 28.6054 21.4234 28.5906C21.438 28.5832 21.4495 28.5775 21.4576 28.5735C21.4617 28.5715 21.4649 28.5699 21.4673 28.5687L21.4702 28.5673L21.4715 28.5666C21.4715 28.5666 21.4718 28.5665 21.7342 29.1166L21.4718 28.5665Z" fill="#5C9B76"/>
<path d="M24.0907 2.94408C22.8026 4.76545 22.5047 7.2704 22.5047 7.2704C22.5047 7.2704 27.3886 7.27165 29.3366 5.85666C31.9839 3.93372 33.6332 0.592915 33.6332 0.592915C33.6332 0.592915 25.9908 0.257261 24.0907 2.94408Z" fill="#5C9B76"/>
<path d="M17.5463 2.94408C18.8344 4.76545 19.1323 7.2704 19.1323 7.2704C19.1323 7.2704 14.2484 7.27165 12.3004 5.85666C9.65311 3.93372 8.00382 0.592915 8.00382 0.592915C8.00382 0.592915 15.6462 0.257261 17.5463 2.94408Z" fill="#5C9B76"/>
<path fill-rule="evenodd" clip-rule="evenodd" d="M15.4461 0.8966C16.4728 1.2581 17.4418 1.79271 18.0195 2.60947C18.7182 3.59749 19.1369 4.75107 19.381 5.6362C19.5041 6.08262 19.5852 6.46971 19.6357 6.7465C19.6574 6.86564 19.6736 6.9647 19.685 7.03966C20.043 7.52633 20.3861 8.17733 20.6425 8.70869C20.6536 8.6889 20.6649 8.669 20.6763 8.649C20.9855 8.10551 21.4345 7.41359 21.9648 6.95816C21.9746 6.89747 21.9867 6.82652 22.0013 6.7465C22.0518 6.46971 22.1329 6.08262 22.256 5.6362C22.5001 4.75107 22.9188 3.59749 23.6175 2.60947C24.1952 1.79271 25.1642 1.2581 26.1908 0.8966C27.2308 0.530421 28.411 0.313919 29.507 0.185383C30.6065 0.0564232 31.6421 0.0137033 32.4012 0.00300652C32.7814 -0.00235026 33.0937 0.000306637 33.3118 0.00433751C33.4209 0.00635352 33.5065 0.00871494 33.5654 0.0105953C33.5948 0.0115355 33.6176 0.0123557 33.6332 0.0129528L33.6514 0.0136682L33.6564 0.0138762L33.6583 0.0139589C33.6585 0.0139659 33.6586 0.0139717 33.6332 0.592915C34.1528 0.849445 34.1527 0.849562 34.1527 0.849691L34.1521 0.850888L34.1508 0.853548L34.1463 0.862465C34.1425 0.86999 34.1371 0.880654 34.1302 0.89431C34.1162 0.92162 34.096 0.960913 34.0695 1.01102C34.0165 1.11121 33.9387 1.25476 33.8373 1.4323C33.6348 1.78709 33.3371 2.27923 32.9544 2.83313C32.1934 3.9343 31.0758 5.3096 29.6771 6.32552C29.1075 6.73932 28.3592 7.02722 27.5992 7.23372C26.8311 7.44246 26.0082 7.57922 25.2595 7.66949C24.5091 7.75995 23.8228 7.80495 23.3243 7.8274C23.0748 7.83864 22.8715 7.84426 22.7299 7.84708C22.7223 7.84723 22.715 7.84737 22.7078 7.8475C22.3552 8.15372 21.9897 8.68425 21.6836 9.22213C21.519 9.51146 21.3839 9.7806 21.2899 9.97749C21.2431 10.0757 21.2067 10.1552 21.1824 10.2096C21.1703 10.2367 21.1612 10.2575 21.1552 10.2712L21.1549 10.2718C21.1547 10.2727 21.1544 10.2735 21.1541 10.2745C21.1494 10.2893 21.1414 10.3158 21.1313 10.3539C21.1111 10.4299 21.0826 10.5523 21.0556 10.7209C21.0016 11.0577 20.9533 11.5802 20.9899 12.287C21.0629 13.6989 21.4752 15.8589 22.8739 18.7523C23.5545 20.1603 24.0656 22.379 24.0711 24.4526C24.0739 25.4932 23.9497 26.5294 23.6348 27.4255C23.3196 28.3224 22.7981 29.1182 21.9832 29.6025C21.7081 29.766 21.3525 29.6755 21.189 29.4004C21.0255 29.1253 21.116 28.7697 21.3911 28.6062C21.9007 28.3033 22.2842 27.773 22.5414 27.0412C22.7989 26.3085 22.9147 25.4132 22.9121 24.4557C22.907 22.5329 22.426 20.489 21.8304 19.2567C20.371 16.2376 19.9141 13.9272 19.8324 12.3468C19.7916 11.5573 19.8446 10.9533 19.9112 10.5375C19.9406 10.354 19.9726 10.2075 20.0003 10.0982C19.9859 10.0645 19.9697 10.0266 19.9518 9.98515C19.8714 9.79942 19.757 9.54261 19.6209 9.25863C19.388 8.77256 19.1072 8.24061 18.8361 7.84554C18.7006 7.84236 18.5231 7.83688 18.3127 7.8274C17.8142 7.80495 17.1278 7.75995 16.3775 7.66949C15.6288 7.57922 14.8059 7.44246 14.0377 7.23372C13.2778 7.02722 12.5295 6.73932 11.9598 6.32552C10.5612 5.3096 9.44356 3.9343 8.68263 2.83313C8.29987 2.27923 8.00221 1.78709 7.79964 1.4323C7.69827 1.25476 7.62047 1.11121 7.56752 1.01102C7.54104 0.960913 7.52075 0.92162 7.50681 0.89431C7.49984 0.880654 7.49446 0.86999 7.49068 0.862465L7.48622 0.853548L7.4849 0.850888L7.48431 0.849691C7.48425 0.849562 7.48419 0.849445 8.00382 0.592915C7.97839 0.0139717 7.97852 0.0139659 7.97868 0.0139589L7.98061 0.0138762L7.9856 0.0136682L8.00374 0.0129528C8.01941 0.0123558 8.04217 0.0115355 8.07161 0.0105953C8.13049 0.00871498 8.21611 0.00635356 8.3252 0.00433755C8.54333 0.000306637 8.85562 -0.00235026 9.23579 0.00300656C9.99493 0.0137033 11.0305 0.0564232 12.13 0.185383C13.226 0.313919 14.4062 0.530421 15.4461 0.8966ZM8.00382 0.592915L7.97839 0.0139717C7.78278 0.0225631 7.60473 0.129353 7.50504 0.297879C7.40536 0.466405 7.39751 0.673873 7.48419 0.849445L8.00382 0.592915ZM8.9827 1.15951C9.15562 1.44846 9.37475 1.796 9.63613 2.17424C10.3617 3.22421 11.3923 4.48078 12.641 5.38779C13.0453 5.68149 13.638 5.92406 14.3417 6.11528C15.0372 6.30428 15.8004 6.43252 16.5162 6.51882C17.2303 6.60491 17.8866 6.64804 18.3648 6.66957C18.3905 6.67073 18.4156 6.67182 18.4403 6.67286C18.3965 6.46393 18.3387 6.21626 18.2637 5.94431C18.0368 5.12161 17.6625 4.11203 17.0732 3.27868C16.7007 2.75203 16.0019 2.32104 15.0612 1.98981C14.1338 1.66326 13.0472 1.4599 11.995 1.3365C10.9465 1.21352 9.95264 1.17223 9.21946 1.16189C9.13708 1.16073 9.05806 1.15996 8.9827 1.15951ZM21.1587 10.2605L21.1586 10.2608C21.1589 10.26 21.1589 10.2599 21.1587 10.2605ZM23.1967 6.67286C23.2213 6.67182 23.2465 6.67073 23.2722 6.66957C23.7503 6.64804 24.4067 6.60491 25.1208 6.51882C25.8365 6.43252 26.5998 6.30428 27.2953 6.11528C27.999 5.92406 28.5917 5.68149 28.996 5.38779C30.2447 4.48078 31.2753 3.22421 32.0009 2.17424C32.2622 1.796 32.4814 1.44846 32.6543 1.15951C32.5789 1.15996 32.4999 1.16073 32.4175 1.16189C31.6843 1.17223 30.6905 1.21352 29.642 1.3365C28.5898 1.4599 27.5032 1.66326 26.5758 1.98981C25.6351 2.32104 24.9363 2.75203 24.5638 3.27868C23.9745 4.11203 23.6002 5.12161 23.3733 5.94431C23.2983 6.21626 23.2405 6.46393 23.1967 6.67286ZM33.6332 0.592915L34.1528 0.849445C34.2395 0.673873 34.2316 0.466405 34.1319 0.297879C34.0323 0.129353 33.8542 0.0225631 33.6586 0.0139717L33.6332 0.592915Z" fill="#5C9B76"/>
</svg>
